Coordinates
version=1
nRows=26
nColumns=24
inDegrees=yes

Units are S.I. units (second, meters, Newtons, ...)
Angles are in degrees.

endheader
time	pelvis_tilt	pelvis_list	pelvis_rotation	pelvis_tx	pelvis_ty	pelvis_tz	hip_flexion_r	hip_adduction_r	hip_rotation_r	knee_angle_r	ankle_angle_r	subtalar_angle_r	mtp_angle_r	hip_flexion_l	hip_adduction_l	hip_rotation_l	knee_angle_l	ankle_angle_l	subtalar_angle_l	mtp_angle_l	lumbar_extension	lumbar_bending	lumbar_rotation
      2.23000000	     13.92289975	     -2.05500724	      7.65749471	      0.99438523	      0.90844803	      0.25348065	     11.53430964	      4.26673315	     -4.68561745	    -28.31873172	     13.20409088	     -1.99961977	     35.97230577	    -12.99426568	     -4.21284741	      1.68560651	    -60.72844162	     13.47034302	      6.94561034	     46.94506691	    -28.79334684	      7.59282766	     -5.50590175
      2.23500000	     13.54689154	     -2.49273787	      8.05167109	      1.00042270	      0.90836762	      0.25322113	     11.60229874	      4.75529178	     -4.85201785	    -28.33617292	     13.49052609	     -2.41630047	     35.69615462	    -11.23312162	     -4.67620293	      2.18038880	    -62.76478638	     13.24728619	      6.33537013	     46.73718673	    -28.35838675	      8.16379952	     -5.47078697
      2.24000000	     13.06781743	     -2.95743572	      8.33279772	      1.00652745	      0.90817906	      0.25308857	     11.76922139	      5.27221093	     -4.90568558	    -28.32478569	     13.84689255	     -2.63730026	     35.05873136	     -9.37138906	     -5.12165437	      2.56389952	    -64.71958560	     13.14037596	      5.79769453	     46.10562731	    -27.80203892	      8.67994467	     -5.24628737
      2.24500000	     12.73613605	     -3.35664480	      8.68277259	      1.01250687	      0.90828934	      0.25285641	     11.72284318	      5.73781295	     -5.01495401	    -28.20459319	     14.11921649	     -3.10901271	     34.61938315	     -7.66948797	     -5.49421990	      3.04631394	    -66.54000311	     13.09498746	      5.14944964	     45.66782139	    -27.41482342	      9.19537105	     -5.24937784
      2.25000000	     12.33379614	     -3.75989040	      8.86875646	      1.01852155	      0.90831125	      0.25276209	     11.77223255	      6.20339850	     -5.01505058	    -28.13732492	     14.58381292	     -3.20153032	     32.99192459	     -5.92703113	     -5.82431344	      3.36753987	    -68.27579288	     13.27549856	      4.67097646	     43.81672256	    -26.95938563	      9.61213154	     -4.95978489
      2.25500000	     12.01793641	     -4.16975327	      9.14043211	      1.02454017	      0.90855302	      0.25256375	     11.64615137	      6.68063036	     -5.08471719	    -27.88808308	     14.84653733	     -3.45159869	     32.74350116	     -4.26507132	     -6.18020379	      3.76421687	    -69.88012587	     13.38140809	      4.13147475	     43.58422501	    -26.57964637	     10.09329573	     -4.84295318
      2.26000000	     11.73925231	     -4.53059274	      9.36411824	      1.03052434	      0.90893210	      0.25242171	     11.45192685	      7.12804924	     -5.08921684	    -27.58803262	     15.06568489	     -3.81825936	     32.43650192	     -2.67159304	     -6.46512671	      4.12359806	    -71.35341660	     13.53609645	      3.56841321	     43.29741786	    -26.25430983	     10.50045795	     -4.70280164
      2.26500000	     11.43538000	     -4.87258509	      9.53761617	      1.03654227	      0.90932264	      0.25228899	     11.26933040	      7.54751161	     -5.06129480	    -27.27408165	     15.31235251	     -4.04345109	     32.11456443	     -1.07679008	     -6.70991229	      4.43260844	    -72.71446363	     13.78662248	      3.06492728	     42.93001215	    -25.89722616	     10.86188304	     -4.51140694
      2.27000000	     11.21010721	     -5.18522920	      9.68857790	      1.04261883	      0.90992747	      0.25213759	     10.93740713	      7.95325753	     -5.00284849	    -26.84873374	     15.51259942	     -4.24899560	     31.77409180	      0.38969253	     -6.92843345	      4.70225818	    -73.92201958	     14.07689620	      2.59902816	     42.55476296	    -25.62162675	     11.19081623	     -4.29078397
      2.27500000	     10.94036731	     -5.50336065	      9.75151910	      1.04868140	      0.91046886	      0.25211163	     10.65956750	      8.36666142	     -4.87870528	    -26.44200207	     15.74979849	     -4.37173823	     31.33717997	      1.88444940	     -7.15053439	      4.87249230	    -75.04283524	     14.49566374	      2.22601776	     42.03286498	    -25.31523358	     11.49794676	     -4.09356662
      2.28000000	     10.79655311	     -5.74401592	      9.86092633	      1.05474847	      0.91129710	      0.25195582	     10.18790282	      8.71265460	     -4.78781782	    -25.94740842	     15.93925281	     -4.60005001	     31.03149153	      3.20510193	     -7.29232461	      5.07712283	    -76.00341912	     14.88101222	      1.83324518	     41.69110986	    -25.13764397	     11.74270244	     -3.87201071
      2.28500000	     10.63257058	     -5.96770966	      9.90787106	      1.06084726	      0.91213466	      0.25185220	      9.72484514	      9.03616741	     -4.66226746	    -25.44628272	     16.11365634	     -4.72388900	     30.75794479	      4.51452801	     -7.41427607	      5.20915930	    -76.85414915	     15.30575360	      1.50352783	     41.37848746	    -24.95310201	     11.94752870	     -3.63650259
      2.29000000	     10.65334195	     -6.10176934	      9.90212428	      1.06703896	      0.91335756	      0.25169399	      8.99397617	      9.28787376	     -4.51356063	    -24.87325496	     16.29996683	     -4.64440430	     30.70832446	      5.52536176	     -7.46939459	      5.23290830	    -77.50070043	     15.71247769	      1.10243932	     41.29670801	    -24.98029473	     12.07143532	     -3.36821423
      2.29500000	     10.39232866	     -6.33885126	      9.88257754	      1.07317881	      0.91407762	      0.25171482	      8.60481515	      9.62651112	     -4.27727005	    -24.31046650	     16.41313837	     -4.88271284	     30.38933659	      6.90964682	     -7.61373916	      5.28245851	    -78.17063292	     16.21022797	      1.00058634	     40.91497536	    -24.67699931	     12.25240295	     -3.15991354
      2.30000000	     10.42555535	     -6.41550824	      9.86662990	      1.07937265	      0.91535883	      0.25148873	      7.83349507	      9.80490092	     -4.15144498	    -23.70880489	     16.55954458	     -4.81896952	     30.34757347	      7.85345258	     -7.60304109	      5.27534935	    -78.60315310	     16.67259001	      0.70855503	     40.86368182	    -24.72022413	     12.30807006	     -2.87934064
      2.30500000	     10.32415743	     -6.55962876	      9.80041797	      1.08556242	      0.91640332	      0.25146141	      7.20404818	     10.06570236	     -3.88010930	    -23.06517599	     16.60562983	     -5.04146567	     30.18294589	      8.95960575	     -7.67922217	      5.22702819	    -78.99505126	     17.17723637	      0.65938092	     40.66771264	    -24.61016031	     12.38904898	     -2.59716803
      2.31000000	     10.30203015	     -6.63170794	      9.72972365	      1.09179840	      0.91759594	      0.25131596	      6.47363258	     10.23201222	     -3.69515124	    -22.44721892	     16.75080523	     -4.99749432	     30.10731477	      9.92175269	     -7.68113537	      5.13881907	    -79.24807592	     17.61631581	      0.53455921	     40.55264583	    -24.58806075	     12.40823264	     -2.31598731
      2.31500000	     10.29858947	     -6.69705993	      9.63302359	      1.09803797	      0.91879696	      0.25119674	      5.70730710	     10.39611309	     -3.46448931	    -21.79352493	     16.83809439	     -4.98875993	     30.03287227	     10.82950191	     -7.69146395	      5.00704035	    -79.39886326	     18.10565887	      0.48329063	     40.45546260	    -24.58904064	     12.41793377	     -2.05136016
      2.32000000	     10.29208707	     -6.73621938	      9.51304642	      1.10427934	      0.91998958	      0.25108642	      4.94014827	     10.52571682	     -3.22439282	    -21.14732209	     16.91397427	     -4.97471280	     29.95960041	     11.70606748	     -7.67716522	      4.84395742	    -79.45114276	     18.58716782	      0.47603329	     40.34699660	    -24.59693993	     12.39007399	     -1.78568405
      2.32500000	     10.29028019	     -6.75264644	      9.37546365	      1.11056819	      0.92118444	      0.25093608	      4.16725862	     10.61091370	     -3.05149070	    -20.52234973	     16.98723988	     -4.82759102	     29.93155689	     12.53401776	     -7.64303745	      4.64014151	    -79.39262954	     19.04829017	      0.44104638	     40.30387244	    -24.60498220	     12.34294064	     -1.55922392
      2.33000000	     10.34520669	     -6.75126625	      9.20072090	      1.11684121	      0.92243041	      0.25086577	      3.30499164	     10.70100603	     -2.74696589	    -19.84822373	     17.06841033	     -4.83493518	     29.85919636	     13.26305730	     -7.62285902	      4.38717955	    -79.24091526	     19.49837286	      0.54184803	     40.18966023	    -24.68945153	     12.24547742	     -1.18836869
      2.33500000	     10.38416568	     -6.72861542	      9.01491643	      1.12312436	      0.92362714	      0.25077229	      2.47654709	     10.74695544	     -2.50233223	    -19.22200556	     17.14189852	     -4.73459254	     29.79761959	     13.97160628	     -7.58102693	      4.10329087	    -78.98969487	     19.93685755	      0.60303600	     40.06156827	    -24.75020517	     12.12743544	     -0.87492744
      2.34000000	     10.42765078	     -6.69667471	      8.82191355	      1.12938732	      0.92477979	      0.25065454	      1.64316890	     10.77092771	     -2.27560855	    -18.59322699	     17.21583028	     -4.60001279	     29.74434583	     14.65300566	     -7.52954390	      3.80716834	    -78.66006956	     20.34456222	      0.67247299	     39.93623672	    -24.82117006	     12.00075685	     -0.56843323
      2.34500000	     10.50993055	     -6.61061653	      8.59641262	      1.13569593	      0.92600893	      0.25058404	      0.74812421	     10.74034133	     -2.00136750	    -17.95326522	     17.25188798	     -4.49556560	     29.63356226	     15.22387242	     -7.44340032	      3.45159277	    -78.20418796	     20.73472361	      0.74789381	     39.74540975	    -24.93909297	     11.80417666	     -0.26073114
      2.35000000	     10.57207254	     -6.57870734	      8.40620967	      1.14193874	      0.92705341	      0.25045177	     -0.09630506	     10.74847060	     -1.80326815	    -17.34034452	     17.36208195	     -4.27698079	     29.57847750	     15.83959400	     -7.41052581	      3.13590856	    -77.72116352	     21.09542669	      0.84777944	     39.63437357	    -25.02749562	     11.67481191	      0.05038521
      2.35500000	     10.65235411	     -6.50974581	      8.18098257	      1.14821987	      0.92812398	      0.25035608	     -0.97204931	     10.71351467	     -1.57470179	    -16.71949006	     17.42016622	     -4.08852911	     29.48950365	     16.37726134	     -7.35423320	      2.76554882	    -77.12477012	     21.43417142	      0.93483831	     39.51033445	    -25.13823027	     11.49896015	      0.34930524
